<svg width="1024" height="753" viewBox="0 0 1024 753" fill="none" xmlns="http://www.w3.org/2000/svg">
<g opacity="0.2" filter="url(#filter0_f_175_198)">
<ellipse cx="520" cy="82.746" rx="640" ry="338.746" fill="#B3A659"/>
</g>
<path d="M62.345 311.158C63.7723 311.158 64.8528 311.768 65.5865 312.988C66.3335 314.195 66.707 315.951 66.707 318.258C66.707 320.564 66.3335 322.327 65.5865 323.548C64.8528 324.768 63.7723 325.378 62.345 325.378C60.9311 325.378 59.8506 324.768 59.1036 323.548C58.3566 322.327 57.9831 320.564 57.9831 318.258C57.9831 315.965 58.3566 314.208 59.1036 312.988C59.8506 311.768 60.9311 311.158 62.345 311.158ZM59.4037 318.258C59.4037 319.894 59.5505 321.174 59.8439 322.1L64.2859 313.189C63.819 312.559 63.1721 312.244 62.345 312.244C61.4246 312.244 60.7043 312.74 60.1841 313.732C59.6638 314.711 59.4037 316.22 59.4037 318.258ZM62.345 324.272C63.2788 324.272 64.0058 323.782 64.526 322.804C65.0462 321.811 65.3063 320.296 65.3063 318.258C65.3063 316.528 65.1396 315.187 64.8061 314.235L60.3642 323.226C60.8444 323.923 61.5047 324.272 62.345 324.272Z" fill="url(#paint0_linear_175_198)" fill-opacity="0.6"/>
<path d="M63.5456 347.098H66.4869V348.164H58.8635V347.098H62.265V335.794L59.0236 337.745L58.4633 336.84L62.4651 334.346H63.5456V347.098Z" fill="url(#paint1_linear_175_198)" fill-opacity="0.6"/>
<path d="M62.345 357.132C63.7723 357.132 64.8528 357.742 65.5865 358.963C66.3335 360.169 66.707 361.926 66.707 364.232C66.707 366.539 66.3335 368.302 65.5865 369.522C64.8528 370.743 63.7723 371.353 62.345 371.353C60.9311 371.353 59.8506 370.743 59.1036 369.522C58.3566 368.302 57.9831 366.539 57.9831 364.232C57.9831 361.939 58.3566 360.183 59.1036 358.963C59.8506 357.742 60.9311 357.132 62.345 357.132ZM59.4037 364.232C59.4037 365.868 59.5505 367.149 59.8439 368.074L64.2859 359.164C63.819 358.534 63.1721 358.218 62.345 358.218C61.4246 358.218 60.7043 358.715 60.1841 359.707C59.6638 360.686 59.4037 362.194 59.4037 364.232ZM62.345 370.247C63.2788 370.247 64.0058 369.757 64.526 368.778C65.0462 367.786 65.3063 366.271 65.3063 364.232C65.3063 362.503 65.1396 361.162 64.8061 360.21L60.3642 369.201C60.8444 369.898 61.5047 370.247 62.345 370.247Z" fill="url(#paint2_linear_175_198)" fill-opacity="0.6"/>
<path d="M63.5456 393.073H66.4869V394.139H58.8635V393.073H62.265V381.769L59.0236 383.72L58.4633 382.815L62.4651 380.321H63.5456V393.073Z" fill="url(#paint3_linear_175_198)" fill-opacity="0.6"/>
<path d="M63.5456 416.06H66.4869V417.126H58.8635V416.06H62.265V404.756L59.0236 406.707L58.4633 405.802L62.4651 403.308H63.5456V416.06Z" fill="url(#paint4_linear_175_198)" fill-opacity="0.6"/>
<path d="M62.345 426.094C63.7723 426.094 64.8528 426.704 65.5865 427.925C66.3335 429.132 66.707 430.888 66.707 433.195C66.707 435.501 66.3335 437.264 65.5865 438.485C64.8528 439.705 63.7723 440.315 62.345 440.315C60.9311 440.315 59.8506 439.705 59.1036 438.485C58.3566 437.264 57.9831 435.501 57.9831 433.195C57.9831 430.902 58.3566 429.145 59.1036 427.925C59.8506 426.704 60.9311 426.094 62.345 426.094ZM59.4037 433.195C59.4037 434.83 59.5505 436.111 59.8439 437.036L64.2859 428.126C63.819 427.496 63.1721 427.18 62.345 427.18C61.4246 427.18 60.7043 427.677 60.1841 428.669C59.6638 429.648 59.4037 431.156 59.4037 433.195ZM62.345 439.209C63.2788 439.209 64.0058 438.719 64.526 437.74C65.0462 436.748 65.3063 435.233 65.3063 433.195C65.3063 431.465 65.1396 430.124 64.8061 429.172L60.3642 438.163C60.8444 438.86 61.5047 439.209 62.345 439.209Z" fill="url(#paint5_linear_175_198)" fill-opacity="0.6"/>
<path d="M63.5456 462.035H66.4869V463.101H58.8635V462.035H62.265V450.731L59.0236 452.682L58.4633 451.777L62.4651 449.283H63.5456V462.035Z" fill="url(#paint6_linear_175_198)" fill-opacity="0.6"/>
<path d="M62.345 472.069C63.7723 472.069 64.8528 472.679 65.5865 473.899C66.3335 475.106 66.707 476.863 66.707 479.169C66.707 481.476 66.3335 483.239 65.5865 484.459C64.8528 485.679 63.7723 486.29 62.345 486.29C60.9311 486.29 59.8506 485.679 59.1036 484.459C58.3566 483.239 57.9831 481.476 57.9831 479.169C57.9831 476.876 58.3566 475.12 59.1036 473.899C59.8506 472.679 60.9311 472.069 62.345 472.069ZM59.4037 479.169C59.4037 480.805 59.5505 482.086 59.8439 483.011L64.2859 474.101C63.819 473.47 63.1721 473.155 62.345 473.155C61.4246 473.155 60.7043 473.651 60.1841 474.644C59.6638 475.623 59.4037 477.131 59.4037 479.169ZM62.345 485.183C63.2788 485.183 64.0058 484.694 64.526 483.715C65.0462 482.723 65.3063 481.207 65.3063 479.169C65.3063 477.439 65.1396 476.099 64.8061 475.146L60.3642 484.137C60.8444 484.835 61.5047 485.183 62.345 485.183Z" fill="url(#paint7_linear_175_198)" fill-opacity="0.6"/>
<path d="M62.345 495.056C63.7723 495.056 64.8528 495.667 65.5865 496.887C66.3335 498.094 66.707 499.85 66.707 502.157C66.707 504.463 66.3335 506.226 65.5865 507.447C64.8528 508.667 63.7723 509.277 62.345 509.277C60.9311 509.277 59.8506 508.667 59.1036 507.447C58.3566 506.226 57.9831 504.463 57.9831 502.157C57.9831 499.864 58.3566 498.107 59.1036 496.887C59.8506 495.667 60.9311 495.056 62.345 495.056ZM59.4037 502.157C59.4037 503.793 59.5505 505.073 59.8439 505.998L64.2859 497.088C63.819 496.458 63.1721 496.143 62.345 496.143C61.4246 496.143 60.7043 496.639 60.1841 497.631C59.6638 498.61 59.4037 500.118 59.4037 502.157ZM62.345 508.171C63.2788 508.171 64.0058 507.681 64.526 506.702C65.0462 505.71 65.3063 504.195 65.3063 502.157C65.3063 500.427 65.1396 499.086 64.8061 498.134L60.3642 507.125C60.8444 507.822 61.5047 508.171 62.345 508.171Z" fill="url(#paint8_linear_175_198)" fill-opacity="0.6"/>
<path d="M63.5456 530.997H66.4869V532.063H58.8635V530.997H62.265V519.693L59.0236 521.644L58.4633 520.739L62.4651 518.245H63.5456V530.997Z" fill="url(#paint9_linear_175_198)" fill-opacity="0.6"/>
<path d="M62.345 541.031C63.7723 541.031 64.8528 541.641 65.5865 542.862C66.3335 544.068 66.707 545.825 66.707 548.131C66.707 550.438 66.3335 552.201 65.5865 553.421C64.8528 554.642 63.7723 555.252 62.345 555.252C60.9311 555.252 59.8506 554.642 59.1036 553.421C58.3566 552.201 57.9831 550.438 57.9831 548.131C57.9831 545.838 58.3566 544.082 59.1036 542.862C59.8506 541.641 60.9311 541.031 62.345 541.031ZM59.4037 548.131C59.4037 549.767 59.5505 551.048 59.8439 551.973L64.2859 543.063C63.819 542.432 63.1721 542.117 62.345 542.117C61.4246 542.117 60.7043 542.613 60.1841 543.606C59.6638 544.585 59.4037 546.093 59.4037 548.131ZM62.345 554.145C63.2788 554.145 64.0058 553.656 64.526 552.677C65.0462 551.685 65.3063 550.17 65.3063 548.131C65.3063 546.402 65.1396 545.061 64.8061 544.109L60.3642 553.099C60.8444 553.797 61.5047 554.145 62.345 554.145Z" fill="url(#paint10_linear_175_198)" fill-opacity="0.6"/>
<path d="M63.5456 576.972H66.4869V578.038H58.8635V576.972H62.265V565.668L59.0236 567.619L58.4633 566.714L62.4651 564.22H63.5456V576.972Z" fill="url(#paint11_linear_175_198)" fill-opacity="0.6"/>
<path d="M63.5456 599.959H66.4869V601.025H58.8635V599.959H62.265V588.655L59.0236 590.606L58.4633 589.701L62.4651 587.207H63.5456V599.959Z" fill="url(#paint12_linear_175_198)" fill-opacity="0.6"/>
<path d="M99.5044 357.132C100.932 357.132 102.012 357.742 102.746 358.963C103.493 360.169 103.866 361.926 103.866 364.232C103.866 366.539 103.493 368.302 102.746 369.522C102.012 370.743 100.932 371.353 99.5044 371.353C98.0904 371.353 97.0099 370.743 96.2629 369.522C95.5159 368.302 95.1424 366.539 95.1424 364.232C95.1424 361.939 95.5159 360.183 96.2629 358.963C97.0099 357.742 98.0904 357.132 99.5044 357.132ZM96.5631 364.232C96.5631 365.868 96.7098 367.149 97.0033 368.074L101.445 359.164C100.978 358.534 100.331 358.218 99.5044 358.218C98.5839 358.218 97.8636 358.715 97.3434 359.707C96.8232 360.686 96.5631 362.194 96.5631 364.232ZM99.5044 370.247C100.438 370.247 101.165 369.757 101.685 368.778C102.206 367.786 102.466 366.271 102.466 364.232C102.466 362.503 102.299 361.162 101.965 360.21L97.5235 369.201C98.0037 369.898 98.664 370.247 99.5044 370.247Z" fill="url(#paint13_linear_175_198)" fill-opacity="0.6"/>
<path d="M100.705 393.073H103.646V394.139H96.0228V393.073H99.4243V381.769L96.1829 383.72L95.6226 382.815L99.6244 380.321H100.705V393.073Z" fill="url(#paint14_linear_175_198)" fill-opacity="0.6"/>
<path d="M99.5044 403.107C100.932 403.107 102.012 403.717 102.746 404.937C103.493 406.144 103.866 407.901 103.866 410.207C103.866 412.514 103.493 414.277 102.746 415.497C102.012 416.717 100.932 417.328 99.5044 417.328C98.0904 417.328 97.0099 416.717 96.2629 415.497C95.5159 414.277 95.1424 412.514 95.1424 410.207C95.1424 407.914 95.5159 406.158 96.2629 404.937C97.0099 403.717 98.0904 403.107 99.5044 403.107ZM96.5631 410.207C96.5631 411.843 96.7098 413.124 97.0033 414.049L101.445 405.138C100.978 404.508 100.331 404.193 99.5044 404.193C98.5839 404.193 97.8636 404.689 97.3434 405.682C96.8232 406.66 96.5631 408.169 96.5631 410.207ZM99.5044 416.221C100.438 416.221 101.165 415.732 101.685 414.753C102.206 413.761 102.466 412.245 102.466 410.207C102.466 408.477 102.299 407.136 101.965 406.184L97.5235 415.175C98.0037 415.873 98.664 416.221 99.5044 416.221Z" fill="url(#paint15_linear_175_198)" fill-opacity="0.6"/>
<path d="M99.5044 426.094C100.932 426.094 102.012 426.704 102.746 427.925C103.493 429.132 103.866 430.888 103.866 433.195C103.866 435.501 103.493 437.264 102.746 438.485C102.012 439.705 100.932 440.315 99.5044 440.315C98.0904 440.315 97.0099 439.705 96.2629 438.485C95.5159 437.264 95.1424 435.501 95.1424 433.195C95.1424 430.902 95.5159 429.145 96.2629 427.925C97.0099 426.704 98.0904 426.094 99.5044 426.094ZM96.5631 433.195C96.5631 434.83 96.7098 436.111 97.0033 437.036L101.445 428.126C100.978 427.496 100.331 427.18 99.5044 427.18C98.5839 427.18 97.8636 427.677 97.3434 428.669C96.8232 429.648 96.5631 431.156 96.5631 433.195ZM99.5044 439.209C100.438 439.209 101.165 438.719 101.685 437.74C102.206 436.748 102.466 435.233 102.466 433.195C102.466 431.465 102.299 430.124 101.965 429.172L97.5235 438.163C98.0037 438.86 98.664 439.209 99.5044 439.209Z" fill="url(#paint16_linear_175_198)" fill-opacity="0.6"/>
<path d="M100.705 462.035H103.646V463.101H96.0228V462.035H99.4243V450.731L96.1829 452.682L95.6226 451.777L99.6244 449.283H100.705V462.035Z" fill="url(#paint17_linear_175_198)" fill-opacity="0.6"/>
<path d="M99.5044 472.069C100.932 472.069 102.012 472.679 102.746 473.899C103.493 475.106 103.866 476.863 103.866 479.169C103.866 481.476 103.493 483.239 102.746 484.459C102.012 485.679 100.932 486.29 99.5044 486.29C98.0904 486.29 97.0099 485.679 96.2629 484.459C95.5159 483.239 95.1424 481.476 95.1424 479.169C95.1424 476.876 95.5159 475.12 96.2629 473.899C97.0099 472.679 98.0904 472.069 99.5044 472.069ZM96.5631 479.169C96.5631 480.805 96.7098 482.086 97.0033 483.011L101.445 474.101C100.978 473.47 100.331 473.155 99.5044 473.155C98.5839 473.155 97.8636 473.651 97.3434 474.644C96.8232 475.623 96.5631 477.131 96.5631 479.169ZM99.5044 485.183C100.438 485.183 101.165 484.694 101.685 483.715C102.206 482.723 102.466 481.207 102.466 479.169C102.466 477.439 102.299 476.099 101.965 475.146L97.5235 484.137C98.0037 484.835 98.664 485.183 99.5044 485.183Z" fill="url(#paint18_linear_175_198)" fill-opacity="0.6"/>
<path d="M100.705 508.01H103.646V509.076H96.0228V508.01H99.4243V496.706L96.1829 498.657L95.6226 497.752L99.6244 495.258H100.705V508.01Z" fill="url(#paint19_linear_175_198)" fill-opacity="0.6"/>
<path d="M99.5044 518.044C100.932 518.044 102.012 518.654 102.746 519.874C103.493 521.081 103.866 522.838 103.866 525.144C103.866 527.45 103.493 529.214 102.746 530.434C102.012 531.654 100.932 532.264 99.5044 532.264C98.0904 532.264 97.0099 531.654 96.2629 530.434C95.5159 529.214 95.1424 527.45 95.1424 525.144C95.1424 522.851 95.5159 521.094 96.2629 519.874C97.0099 518.654 98.0904 518.044 99.5044 518.044ZM96.5631 525.144C96.5631 526.78 96.7098 528.061 97.0033 528.986L101.445 520.075C100.978 519.445 100.331 519.13 99.5044 519.13C98.5839 519.13 97.8636 519.626 97.3434 520.618C96.8232 521.597 96.5631 523.106 96.5631 525.144ZM99.5044 531.158C100.438 531.158 101.165 530.669 101.685 529.69C102.206 528.697 102.466 527.182 102.466 525.144C102.466 523.414 102.299 522.073 101.965 521.121L97.5235 530.112C98.0037 530.809 98.664 531.158 99.5044 531.158Z" fill="url(#paint20_linear_175_198)" fill-opacity="0.6"/>
<path d="M99.5044 541.031C100.932 541.031 102.012 541.641 102.746 542.862C103.493 544.068 103.866 545.825 103.866 548.131C103.866 550.438 103.493 552.201 102.746 553.421C102.012 554.642 100.932 555.252 99.5044 555.252C98.0904 555.252 97.0099 554.642 96.2629 553.421C95.5159 552.201 95.1424 550.438 95.1424 548.131C95.1424 545.838 95.5159 544.082 96.2629 542.862C97.0099 541.641 98.0904 541.031 99.5044 541.031ZM96.5631 548.131C96.5631 549.767 96.7098 551.048 97.0033 551.973L101.445 543.063C100.978 542.432 100.331 542.117 99.5044 542.117C98.5839 542.117 97.8636 542.613 97.3434 543.606C96.8232 544.585 96.5631 546.093 96.5631 548.131ZM99.5044 554.145C100.438 554.145 101.165 553.656 101.685 552.677C102.206 551.685 102.466 550.17 102.466 548.131C102.466 546.402 102.299 545.061 101.965 544.109L97.5235 553.099C98.0037 553.797 98.664 554.145 99.5044 554.145Z" fill="url(#paint21_linear_175_198)" fill-opacity="0.6"/>
<path d="M100.705 576.972H103.646V578.038H96.0228V576.972H99.4243V565.668L96.1829 567.619L95.6226 566.714L99.6244 564.22H100.705V576.972Z" fill="url(#paint22_linear_175_198)" fill-opacity="0.6"/>
<path d="M99.5044 587.006C100.932 587.006 102.012 587.616 102.746 588.836C103.493 590.043 103.866 591.8 103.866 594.106C103.866 596.412 103.493 598.176 102.746 599.396C102.012 600.616 100.932 601.226 99.5044 601.226C98.0904 601.226 97.0099 600.616 96.2629 599.396C95.5159 598.176 95.1424 596.412 95.1424 594.106C95.1424 591.813 95.5159 590.056 96.2629 588.836C97.0099 587.616 98.0904 587.006 99.5044 587.006ZM96.5631 594.106C96.5631 595.742 96.7098 597.023 97.0033 597.948L101.445 589.037C100.978 588.407 100.331 588.092 99.5044 588.092C98.5839 588.092 97.8636 588.588 97.3434 589.58C96.8232 590.559 96.5631 592.068 96.5631 594.106ZM99.5044 600.12C100.438 600.12 101.165 599.631 101.685 598.652C102.206 597.66 102.466 596.144 102.466 594.106C102.466 592.376 102.299 591.035 101.965 590.083L97.5235 599.074C98.0037 599.771 98.664 600.12 99.5044 600.12Z" fill="url(#paint23_linear_175_198)" fill-opacity="0.6"/>
<path d="M100.705 622.947H103.646V624.013H96.0228V622.947H99.4243V611.643L96.1829 613.594L95.6226 612.688L99.6244 610.194H100.705V622.947Z" fill="url(#paint24_linear_175_198)" fill-opacity="0.6"/>
<path d="M100.705 645.934H103.646V647H96.0228V645.934H99.4243V634.63L96.1829 636.581L95.6226 635.676L99.6244 633.182H100.705V645.934Z" fill="url(#paint25_linear_175_198)" fill-opacity="0.6"/>
<path d="M43.7654 380.12C45.1927 380.12 46.2732 380.73 47.0068 381.95C47.7538 383.157 48.1273 384.913 48.1273 387.22C48.1273 389.526 47.7538 391.29 47.0068 392.51C46.2732 393.73 45.1927 394.34 43.7654 394.34C42.3514 394.34 41.2709 393.73 40.5239 392.51C39.7769 391.29 39.4034 389.526 39.4034 387.22C39.4034 384.927 39.7769 383.17 40.5239 381.95C41.2709 380.73 42.3514 380.12 43.7654 380.12ZM40.8241 387.22C40.8241 388.856 40.9708 390.136 41.2643 391.062L45.7062 382.151C45.2394 381.521 44.5924 381.206 43.7654 381.206C42.845 381.206 42.1246 381.702 41.6044 382.694C41.0842 383.673 40.8241 385.182 40.8241 387.22ZM43.7654 393.234C44.6991 393.234 45.4261 392.744 45.9463 391.766C46.4666 390.773 46.7267 389.258 46.7267 387.22C46.7267 385.49 46.5599 384.149 46.2265 383.197L41.7845 392.188C42.2647 392.885 42.925 393.234 43.7654 393.234Z" fill="url(#paint26_linear_175_198)" fill-opacity="0.6"/>
<path d="M43.7654 403.107C45.1927 403.107 46.2732 403.717 47.0068 404.937C47.7538 406.144 48.1273 407.901 48.1273 410.207C48.1273 412.514 47.7538 414.277 47.0068 415.497C46.2732 416.717 45.1927 417.328 43.7654 417.328C42.3514 417.328 41.2709 416.717 40.5239 415.497C39.7769 414.277 39.4034 412.514 39.4034 410.207C39.4034 407.914 39.7769 406.158 40.5239 404.937C41.2709 403.717 42.3514 403.107 43.7654 403.107ZM40.8241 410.207C40.8241 411.843 40.9708 413.124 41.2643 414.049L45.7062 405.138C45.2394 404.508 44.5924 404.193 43.7654 404.193C42.845 404.193 42.1246 404.689 41.6044 405.682C41.0842 406.66 40.8241 408.169 40.8241 410.207ZM43.7654 416.221C44.6991 416.221 45.4261 415.732 45.9463 414.753C46.4666 413.761 46.7267 412.245 46.7267 410.207C46.7267 408.477 46.5599 407.136 46.2265 406.184L41.7845 415.175C42.2647 415.873 42.925 416.221 43.7654 416.221Z" fill="url(#paint27_linear_175_198)" fill-opacity="0.6"/>
<path d="M44.9659 439.048H47.9072V440.114H40.2838V439.048H43.6853V427.744L40.4439 429.695L39.8837 428.79L43.8854 426.295H44.9659V439.048Z" fill="url(#paint28_linear_175_198)" fill-opacity="0.6"/>
<path d="M43.7654 449.082C45.1927 449.082 46.2732 449.692 47.0068 450.912C47.7538 452.119 48.1273 453.876 48.1273 456.182C48.1273 458.488 47.7538 460.252 47.0068 461.472C46.2732 462.692 45.1927 463.302 43.7654 463.302C42.3514 463.302 41.2709 462.692 40.5239 461.472C39.7769 460.252 39.4034 458.488 39.4034 456.182C39.4034 453.889 39.7769 452.132 40.5239 450.912C41.2709 449.692 42.3514 449.082 43.7654 449.082ZM40.8241 456.182C40.8241 457.818 40.9708 459.098 41.2643 460.024L45.7062 451.113C45.2394 450.483 44.5924 450.168 43.7654 450.168C42.845 450.168 42.1246 450.664 41.6044 451.656C41.0842 452.635 40.8241 454.144 40.8241 456.182ZM43.7654 462.196C44.6991 462.196 45.4261 461.707 45.9463 460.728C46.4666 459.735 46.7267 458.22 46.7267 456.182C46.7267 454.452 46.5599 453.111 46.2265 452.159L41.7845 461.15C42.2647 461.847 42.925 462.196 43.7654 462.196Z" fill="url(#paint29_linear_175_198)" fill-opacity="0.6"/>
<path d="M44.9659 485.022H47.9072V486.088H40.2838V485.022H43.6853V473.718L40.4439 475.669L39.8837 474.764L43.8854 472.27H44.9659V485.022Z" fill="url(#paint30_linear_175_198)" fill-opacity="0.6"/>
<path d="M44.9659 508.01H47.9072V509.076H40.2838V508.01H43.6853V496.706L40.4439 498.657L39.8837 497.752L43.8854 495.258H44.9659V508.01Z" fill="url(#paint31_linear_175_198)" fill-opacity="0.6"/>
<path d="M82.1252 347.098H85.0665V348.164H77.4432V347.098H80.8447V335.794L77.6032 337.745L77.043 336.84L81.0447 334.346H82.1252V347.098Z" fill="url(#paint32_linear_175_198)" fill-opacity="0.6"/>
<path d="M80.9247 357.132C82.352 357.132 83.4325 357.742 84.1661 358.963C84.9131 360.169 85.2866 361.926 85.2866 364.232C85.2866 366.539 84.9131 368.302 84.1661 369.522C83.4325 370.743 82.352 371.353 80.9247 371.353C79.5107 371.353 78.4303 370.743 77.6833 369.522C76.9363 368.302 76.5628 366.539 76.5628 364.232C76.5628 361.939 76.9363 360.183 77.6833 358.963C78.4303 357.742 79.5107 357.132 80.9247 357.132ZM77.9834 364.232C77.9834 365.868 78.1301 367.149 78.4236 368.074L82.8656 359.164C82.3987 358.534 81.7517 358.218 80.9247 358.218C80.0043 358.218 79.284 358.715 78.7637 359.707C78.2435 360.686 77.9834 362.194 77.9834 364.232ZM80.9247 370.247C81.8584 370.247 82.5854 369.757 83.1057 368.778C83.6259 367.786 83.886 366.271 83.886 364.232C83.886 362.503 83.7193 361.162 83.3858 360.21L78.9438 369.201C79.424 369.898 80.0843 370.247 80.9247 370.247Z" fill="url(#paint33_linear_175_198)" fill-opacity="0.6"/>
<path d="M82.1252 393.073H85.0665V394.139H77.4432V393.073H80.8447V381.769L77.6032 383.72L77.043 382.815L81.0447 380.321H82.1252V393.073Z" fill="url(#paint34_linear_175_198)" fill-opacity="0.6"/>
<path d="M82.1252 416.06H85.0665V417.126H77.4432V416.06H80.8447V404.756L77.6032 406.707L77.043 405.802L81.0447 403.308H82.1252V416.06Z" fill="url(#paint35_linear_175_198)" fill-opacity="0.6"/>
<path d="M80.9247 426.094C82.352 426.094 83.4325 426.704 84.1661 427.925C84.9131 429.132 85.2866 430.888 85.2866 433.195C85.2866 435.501 84.9131 437.264 84.1661 438.485C83.4325 439.705 82.352 440.315 80.9247 440.315C79.5107 440.315 78.4303 439.705 77.6833 438.485C76.9363 437.264 76.5628 435.501 76.5628 433.195C76.5628 430.902 76.9363 429.145 77.6833 427.925C78.4303 426.704 79.5107 426.094 80.9247 426.094ZM77.9834 433.195C77.9834 434.83 78.1301 436.111 78.4236 437.036L82.8656 428.126C82.3987 427.496 81.7517 427.18 80.9247 427.18C80.0043 427.18 79.284 427.677 78.7637 428.669C78.2435 429.648 77.9834 431.156 77.9834 433.195ZM80.9247 439.209C81.8584 439.209 82.5854 438.719 83.1057 437.74C83.6259 436.748 83.886 435.233 83.886 433.195C83.886 431.465 83.7193 430.124 83.3858 429.172L78.9438 438.163C79.424 438.86 80.0843 439.209 80.9247 439.209Z" fill="url(#paint36_linear_175_198)" fill-opacity="0.6"/>
<path d="M82.1252 462.035H85.0665V463.101H77.4432V462.035H80.8447V450.731L77.6032 452.682L77.043 451.777L81.0447 449.283H82.1252V462.035Z" fill="url(#paint37_linear_175_198)" fill-opacity="0.6"/>
<path d="M82.1252 485.022H85.0665V486.088H77.4432V485.022H80.8447V473.718L77.6032 475.669L77.043 474.764L81.0447 472.27H82.1252V485.022Z" fill="url(#paint38_linear_175_198)" fill-opacity="0.6"/>
<path d="M80.9247 495.056C82.352 495.056 83.4325 495.667 84.1661 496.887C84.9131 498.094 85.2866 499.85 85.2866 502.157C85.2866 504.463 84.9131 506.226 84.1661 507.447C83.4325 508.667 82.352 509.277 80.9247 509.277C79.5107 509.277 78.4303 508.667 77.6833 507.447C76.9363 506.226 76.5628 504.463 76.5628 502.157C76.5628 499.864 76.9363 498.107 77.6833 496.887C78.4303 495.667 79.5107 495.056 80.9247 495.056ZM77.9834 502.157C77.9834 503.793 78.1301 505.073 78.4236 505.998L82.8656 497.088C82.3987 496.458 81.7517 496.143 80.9247 496.143C80.0043 496.143 79.284 496.639 78.7637 497.631C78.2435 498.61 77.9834 500.118 77.9834 502.157ZM80.9247 508.171C81.8584 508.171 82.5854 507.681 83.1057 506.702C83.6259 505.71 83.886 504.195 83.886 502.157C83.886 500.427 83.7193 499.086 83.3858 498.134L78.9438 507.125C79.424 507.822 80.0843 508.171 80.9247 508.171Z" fill="url(#paint39_linear_175_198)" fill-opacity="0.6"/>
<path d="M82.1252 530.997H85.0665V532.063H77.4432V530.997H80.8447V519.693L77.6032 521.644L77.043 520.739L81.0447 518.245H82.1252V530.997Z" fill="url(#paint40_linear_175_198)" fill-opacity="0.6"/>
<path d="M80.9247 541.031C82.352 541.031 83.4325 541.641 84.1661 542.862C84.9131 544.068 85.2866 545.825 85.2866 548.131C85.2866 550.438 84.9131 552.201 84.1661 553.421C83.4325 554.642 82.352 555.252 80.9247 555.252C79.5107 555.252 78.4303 554.642 77.6833 553.421C76.9363 552.201 76.5628 550.438 76.5628 548.131C76.5628 545.838 76.9363 544.082 77.6833 542.862C78.4303 541.641 79.5107 541.031 80.9247 541.031ZM77.9834 548.131C77.9834 549.767 78.1301 551.048 78.4236 551.973L82.8656 543.063C82.3987 542.432 81.7517 542.117 80.9247 542.117C80.0043 542.117 79.284 542.613 78.7637 543.606C78.2435 544.585 77.9834 546.093 77.9834 548.131ZM80.9247 554.145C81.8584 554.145 82.5854 553.656 83.1057 552.677C83.6259 551.685 83.886 550.17 83.886 548.131C83.886 546.402 83.7193 545.061 83.3858 544.109L78.9438 553.099C79.424 553.797 80.0843 554.145 80.9247 554.145Z" fill="url(#paint41_linear_175_198)" fill-opacity="0.6"/>
<path d="M118.084 334.145C119.511 334.145 120.592 334.755 121.325 335.975C122.072 337.182 122.446 338.939 122.446 341.245C122.446 343.552 122.072 345.315 121.325 346.535C120.592 347.755 119.511 348.365 118.084 348.365C116.67 348.365 115.59 347.755 114.843 346.535C114.096 345.315 113.722 343.552 113.722 341.245C113.722 338.952 114.096 337.196 114.843 335.975C115.59 334.755 116.67 334.145 118.084 334.145ZM115.143 341.245C115.143 342.881 115.289 344.162 115.583 345.087L120.025 336.176C119.558 335.546 118.911 335.231 118.084 335.231C117.164 335.231 116.443 335.727 115.923 336.719C115.403 337.698 115.143 339.207 115.143 341.245ZM118.084 347.259C119.018 347.259 119.745 346.77 120.265 345.791C120.785 344.799 121.045 343.283 121.045 341.245C121.045 339.515 120.879 338.174 120.545 337.222L116.103 346.213C116.583 346.911 117.244 347.259 118.084 347.259Z" fill="url(#paint42_linear_175_198)" fill-opacity="0.6"/>
<path d="M119.285 370.086H122.226V371.152H114.602V370.086H118.004V358.782L114.763 360.733L114.202 359.828L118.204 357.333H119.285V370.086Z" fill="url(#paint43_linear_175_198)" fill-opacity="0.6"/>
<path d="M119.285 393.073H122.226V394.139H114.602V393.073H118.004V381.769L114.763 383.72L114.202 382.815L118.204 380.321H119.285V393.073Z" fill="url(#paint44_linear_175_198)" fill-opacity="0.6"/>
<path d="M118.084 403.107C119.511 403.107 120.592 403.717 121.325 404.937C122.072 406.144 122.446 407.901 122.446 410.207C122.446 412.514 122.072 414.277 121.325 415.497C120.592 416.717 119.511 417.328 118.084 417.328C116.67 417.328 115.59 416.717 114.843 415.497C114.096 414.277 113.722 412.514 113.722 410.207C113.722 407.914 114.096 406.158 114.843 404.937C115.59 403.717 116.67 403.107 118.084 403.107ZM115.143 410.207C115.143 411.843 115.289 413.124 115.583 414.049L120.025 405.138C119.558 404.508 118.911 404.193 118.084 404.193C117.164 404.193 116.443 404.689 115.923 405.682C115.403 406.66 115.143 408.169 115.143 410.207ZM118.084 416.221C119.018 416.221 119.745 415.732 120.265 414.753C120.785 413.761 121.045 412.245 121.045 410.207C121.045 408.477 120.879 407.136 120.545 406.184L116.103 415.175C116.583 415.873 117.244 416.221 118.084 416.221Z" fill="url(#paint45_linear_175_198)" fill-opacity="0.6"/>
<path d="M118.084 426.094C119.511 426.094 120.592 426.704 121.325 427.925C122.072 429.132 122.446 430.888 122.446 433.195C122.446 435.501 122.072 437.264 121.325 438.485C120.592 439.705 119.511 440.315 118.084 440.315C116.67 440.315 115.59 439.705 114.843 438.485C114.096 437.264 113.722 435.501 113.722 433.195C113.722 430.902 114.096 429.145 114.843 427.925C115.59 426.704 116.67 426.094 118.084 426.094ZM115.143 433.195C115.143 434.83 115.289 436.111 115.583 437.036L120.025 428.126C119.558 427.496 118.911 427.18 118.084 427.18C117.164 427.18 116.443 427.677 115.923 428.669C115.403 429.648 115.143 431.156 115.143 433.195ZM118.084 439.209C119.018 439.209 119.745 438.719 120.265 437.74C120.785 436.748 121.045 435.233 121.045 433.195C121.045 431.465 120.879 430.124 120.545 429.172L116.103 438.163C116.583 438.86 117.244 439.209 118.084 439.209Z" fill="url(#paint46_linear_175_198)" fill-opacity="0.6"/>
<g opacity="0.6">
<path d="M908.897 20.8039C910.258 20.8039 911.289 21.3894 911.989 22.5604C912.702 23.7185 913.058 25.4043 913.058 27.6176C913.058 29.831 912.702 31.5231 911.989 32.6942C911.289 33.8652 910.258 34.4507 908.897 34.4507C907.548 34.4507 906.517 33.8652 905.804 32.6942C905.092 31.5231 904.735 29.831 904.735 27.6176C904.735 25.4171 905.092 23.7314 905.804 22.5604C906.517 21.3894 907.548 20.8039 908.897 20.8039ZM906.09 27.6176C906.09 29.1875 906.23 30.4165 906.51 31.3044L910.748 22.7534C910.303 22.1486 909.686 21.8462 908.897 21.8462C908.018 21.8462 907.331 22.3223 906.835 23.2746C906.339 24.214 906.09 25.6616 906.09 27.6176ZM908.897 33.389C909.787 33.389 910.481 32.9194 910.977 31.98C911.474 31.0277 911.722 29.5736 911.722 27.6176C911.722 25.9576 911.563 24.6708 911.244 23.7571L907.007 32.3853C907.465 33.0545 908.095 33.389 908.897 33.389Z" fill="url(#paint47_linear_175_198)"/>
<path d="M910.042 55.2945H912.848V56.3176H905.575V55.2945H908.82V44.4466L905.728 46.3189L905.193 45.4503L909.011 43.0568H910.042V55.2945Z" fill="url(#paint48_linear_175_198)"/>
<path d="M908.897 64.9237C910.258 64.9237 911.289 65.5092 911.989 66.6802C912.702 67.8384 913.058 69.5241 913.058 71.7374C913.058 73.9508 912.702 75.643 911.989 76.814C911.289 77.985 910.258 78.5705 908.897 78.5705C907.548 78.5705 906.517 77.985 905.804 76.814C905.092 75.643 904.735 73.9508 904.735 71.7374C904.735 69.537 905.092 67.8512 905.804 66.6802C906.517 65.5092 907.548 64.9237 908.897 64.9237ZM906.09 71.7374C906.09 73.3074 906.23 74.5363 906.51 75.4242L910.748 66.8732C910.303 66.2684 909.686 65.966 908.897 65.966C908.018 65.966 907.331 66.4421 906.835 67.3944C906.339 68.3338 906.09 69.7815 906.09 71.7374ZM908.897 77.5089C909.787 77.5089 910.481 77.0392 910.977 76.0998C911.474 75.1475 911.722 73.6934 911.722 71.7374C911.722 70.0774 911.563 68.7906 911.244 67.877L907.007 76.5051C907.465 77.1743 908.095 77.5089 908.897 77.5089Z" fill="url(#paint49_linear_175_198)"/>
<path d="M910.042 99.4144H912.848V100.437H905.575V99.4144H908.82V88.5664L905.728 90.4387L905.193 89.5701L909.011 87.1766H910.042V99.4144Z" fill="url(#paint50_linear_175_198)"/>
<path d="M910.042 121.474H912.848V122.497H905.575V121.474H908.82V110.626L905.728 112.499L905.193 111.63L909.011 109.237H910.042V121.474Z" fill="url(#paint51_linear_175_198)"/>
<path d="M908.897 131.103C910.258 131.103 911.289 131.689 911.989 132.86C912.702 134.018 913.058 135.704 913.058 137.917C913.058 140.131 912.702 141.823 911.989 142.994C911.289 144.165 910.258 144.75 908.897 144.75C907.548 144.75 906.517 144.165 905.804 142.994C905.092 141.823 904.735 140.131 904.735 137.917C904.735 135.717 905.092 134.031 905.804 132.86C906.517 131.689 907.548 131.103 908.897 131.103ZM906.09 137.917C906.09 139.487 906.23 140.716 906.51 141.604L910.748 133.053C910.303 132.448 909.686 132.146 908.897 132.146C908.018 132.146 907.331 132.622 906.835 133.574C906.339 134.514 906.09 135.961 906.09 137.917ZM908.897 143.689C909.787 143.689 910.481 143.219 910.977 142.28C911.474 141.327 911.722 139.873 911.722 137.917C911.722 136.257 911.563 134.97 911.244 134.057L907.007 142.685C907.465 143.354 908.095 143.689 908.897 143.689Z" fill="url(#paint52_linear_175_198)"/>
<path d="M910.042 165.594H912.848V166.617H905.575V165.594H908.82V154.746L905.728 156.618L905.193 155.75L909.011 153.356H910.042V165.594Z" fill="url(#paint53_linear_175_198)"/>
<path d="M908.897 175.223C910.258 175.223 911.289 175.809 911.989 176.98C912.702 178.138 913.058 179.824 913.058 182.037C913.058 184.25 912.702 185.943 911.989 187.114C911.289 188.285 910.258 188.87 908.897 188.87C907.548 188.87 906.517 188.285 905.804 187.114C905.092 185.943 904.735 184.25 904.735 182.037C904.735 179.837 905.092 178.151 905.804 176.98C906.517 175.809 907.548 175.223 908.897 175.223ZM906.09 182.037C906.09 183.607 906.23 184.836 906.51 185.724L910.748 177.173C910.303 176.568 909.686 176.266 908.897 176.266C908.018 176.266 907.331 176.742 906.835 177.694C906.339 178.633 906.09 180.081 906.09 182.037ZM908.897 187.808C909.787 187.808 910.481 187.339 910.977 186.399C911.474 185.447 911.722 183.993 911.722 182.037C911.722 180.377 911.563 179.09 911.244 178.177L907.007 186.805C907.465 187.474 908.095 187.808 908.897 187.808Z" fill="url(#paint54_linear_175_198)"/>
<path d="M908.897 197.283C910.258 197.283 911.289 197.869 911.989 199.04C912.702 200.198 913.058 201.884 913.058 204.097C913.058 206.31 912.702 208.002 911.989 209.173C911.289 210.344 910.258 210.93 908.897 210.93C907.548 210.93 906.517 210.344 905.804 209.173C905.092 208.002 904.735 206.31 904.735 204.097C904.735 201.896 905.092 200.211 905.804 199.04C906.517 197.869 907.548 197.283 908.897 197.283ZM906.09 204.097C906.09 205.667 906.23 206.896 906.51 207.784L910.748 199.233C910.303 198.628 909.686 198.325 908.897 198.325C908.018 198.325 907.331 198.802 906.835 199.754C906.339 200.693 906.09 202.141 906.09 204.097ZM908.897 209.868C909.787 209.868 910.481 209.399 910.977 208.459C911.474 207.507 911.722 206.053 911.722 204.097C911.722 202.437 911.563 201.15 911.244 200.236L907.007 208.865C907.465 209.534 908.095 209.868 908.897 209.868Z" fill="url(#paint55_linear_175_198)"/>
<path d="M910.042 231.774H912.848V232.797H905.575V231.774H908.82V220.926L905.728 222.798L905.193 221.93L909.011 219.536H910.042V231.774Z" fill="url(#paint56_linear_175_198)"/>
<path d="M908.897 241.403C910.258 241.403 911.289 241.988 911.989 243.16C912.702 244.318 913.058 246.003 913.058 248.217C913.058 250.43 912.702 252.122 911.989 253.293C911.289 254.464 910.258 255.05 908.897 255.05C907.548 255.05 906.517 254.464 905.804 253.293C905.092 252.122 904.735 250.43 904.735 248.217C904.735 246.016 905.092 244.331 905.804 243.16C906.517 241.988 907.548 241.403 908.897 241.403ZM906.09 248.217C906.09 249.787 906.23 251.016 906.51 251.904L910.748 243.353C910.303 242.748 909.686 242.445 908.897 242.445C908.018 242.445 907.331 242.921 906.835 243.874C906.339 244.813 906.09 246.261 906.09 248.217ZM908.897 253.988C909.787 253.988 910.481 253.518 910.977 252.579C911.474 251.627 911.722 250.173 911.722 248.217C911.722 246.557 911.563 245.27 911.244 244.356L907.007 252.984C907.465 253.654 908.095 253.988 908.897 253.988Z" fill="url(#paint57_linear_175_198)"/>
<path d="M910.042 275.894H912.848V276.917H905.575V275.894H908.82V265.046L905.728 266.918L905.193 266.049L909.011 263.656H910.042V275.894Z" fill="url(#paint58_linear_175_198)"/>
<path d="M910.042 297.954H912.848V298.977H905.575V297.954H908.82V287.106L905.728 288.978L905.193 288.109L909.011 285.716H910.042V297.954Z" fill="url(#paint59_linear_175_198)"/>
<path d="M944.347 64.9237C945.709 64.9237 946.74 65.5092 947.44 66.6802C948.152 67.8384 948.509 69.5241 948.509 71.7374C948.509 73.9508 948.152 75.643 947.44 76.814C946.74 77.985 945.709 78.5705 944.347 78.5705C942.998 78.5705 941.968 77.985 941.255 76.814C940.542 75.643 940.186 73.9508 940.186 71.7374C940.186 69.537 940.542 67.8512 941.255 66.6802C941.968 65.5092 942.998 64.9237 944.347 64.9237ZM941.541 71.7374C941.541 73.3074 941.681 74.5363 941.961 75.4242L946.199 66.8732C945.754 66.2684 945.136 65.966 944.347 65.966C943.469 65.966 942.782 66.4421 942.286 67.3944C941.789 68.3338 941.541 69.7815 941.541 71.7374ZM944.347 77.5089C945.238 77.5089 945.932 77.0392 946.428 76.0998C946.924 75.1475 947.173 73.6934 947.173 71.7374C947.173 70.0774 947.013 68.7906 946.695 67.877L942.458 76.5051C942.916 77.1743 943.546 77.5089 944.347 77.5089Z" fill="url(#paint60_linear_175_198)"/>
<path d="M945.493 99.4144H948.299V100.437H941.026V99.4144H944.271V88.5664L941.179 90.4387L940.644 89.5701L944.462 87.1766H945.493V99.4144Z" fill="url(#paint61_linear_175_198)"/>
<path d="M944.347 109.044C945.709 109.044 946.74 109.629 947.44 110.8C948.152 111.958 948.509 113.644 948.509 115.857C948.509 118.071 948.152 119.763 947.44 120.934C946.74 122.105 945.709 122.69 944.347 122.69C942.998 122.69 941.968 122.105 941.255 120.934C940.542 119.763 940.186 118.071 940.186 115.857C940.186 113.657 940.542 111.971 941.255 110.8C941.968 109.629 942.998 109.044 944.347 109.044ZM941.541 115.857C941.541 117.427 941.681 118.656 941.961 119.544L946.199 110.993C945.754 110.388 945.136 110.086 944.347 110.086C943.469 110.086 942.782 110.562 942.286 111.514C941.789 112.454 941.541 113.901 941.541 115.857ZM944.347 121.629C945.238 121.629 945.932 121.159 946.428 120.22C946.924 119.267 947.173 117.813 947.173 115.857C947.173 114.197 947.013 112.91 946.695 111.997L942.458 120.625C942.916 121.294 943.546 121.629 944.347 121.629Z" fill="url(#paint62_linear_175_198)"/>
<path d="M944.347 131.103C945.709 131.103 946.74 131.689 947.44 132.86C948.152 134.018 948.509 135.704 948.509 137.917C948.509 140.131 948.152 141.823 947.44 142.994C946.74 144.165 945.709 144.75 944.347 144.75C942.998 144.75 941.968 144.165 941.255 142.994C940.542 141.823 940.186 140.131 940.186 137.917C940.186 135.717 940.542 134.031 941.255 132.86C941.968 131.689 942.998 131.103 944.347 131.103ZM941.541 137.917C941.541 139.487 941.681 140.716 941.961 141.604L946.199 133.053C945.754 132.448 945.136 132.146 944.347 132.146C943.469 132.146 942.782 132.622 942.286 133.574C941.789 134.514 941.541 135.961 941.541 137.917ZM944.347 143.689C945.238 143.689 945.932 143.219 946.428 142.28C946.924 141.327 947.173 139.873 947.173 137.917C947.173 136.257 947.013 134.97 946.695 134.057L942.458 142.685C942.916 143.354 943.546 143.689 944.347 143.689Z" fill="url(#paint63_linear_175_198)"/>
<path d="M945.493 165.594H948.299V166.617H941.026V165.594H944.271V154.746L941.179 156.618L940.644 155.75L944.462 153.356H945.493V165.594Z" fill="url(#paint64_linear_175_198)"/>
<path d="M944.347 175.223C945.709 175.223 946.74 175.809 947.44 176.98C948.152 178.138 948.509 179.824 948.509 182.037C948.509 184.25 948.152 185.943 947.44 187.114C946.74 188.285 945.709 188.87 944.347 188.87C942.998 188.87 941.968 188.285 941.255 187.114C940.542 185.943 940.186 184.25 940.186 182.037C940.186 179.837 940.542 178.151 941.255 176.98C941.968 175.809 942.998 175.223 944.347 175.223ZM941.541 182.037C941.541 183.607 941.681 184.836 941.961 185.724L946.199 177.173C945.754 176.568 945.136 176.266 944.347 176.266C943.469 176.266 942.782 176.742 942.286 177.694C941.789 178.633 941.541 180.081 941.541 182.037ZM944.347 187.808C945.238 187.808 945.932 187.339 946.428 186.399C946.924 185.447 947.173 183.993 947.173 182.037C947.173 180.377 947.013 179.09 946.695 178.177L942.458 186.805C942.916 187.474 943.546 187.808 944.347 187.808Z" fill="url(#paint65_linear_175_198)"/>
<path d="M945.493 209.714H948.299V210.737H941.026V209.714H944.271V198.866L941.179 200.738L940.644 199.87L944.462 197.476H945.493V209.714Z" fill="url(#paint66_linear_175_198)"/>
<path d="M944.347 219.343C945.709 219.343 946.74 219.929 947.44 221.1C948.152 222.258 948.509 223.943 948.509 226.157C948.509 228.37 948.152 230.062 947.44 231.233C946.74 232.404 945.709 232.99 944.347 232.99C942.998 232.99 941.968 232.404 941.255 231.233C940.542 230.062 940.186 228.37 940.186 226.157C940.186 223.956 940.542 222.271 941.255 221.1C941.968 219.929 942.998 219.343 944.347 219.343ZM941.541 226.157C941.541 227.727 941.681 228.956 941.961 229.844L946.199 221.293C945.754 220.688 945.136 220.385 944.347 220.385C943.469 220.385 942.782 220.862 942.286 221.814C941.789 222.753 941.541 224.201 941.541 226.157ZM944.347 231.928C945.238 231.928 945.932 231.459 946.428 230.519C946.924 229.567 947.173 228.113 947.173 226.157C947.173 224.497 947.013 223.21 946.695 222.296L942.458 230.925C942.916 231.594 943.546 231.928 944.347 231.928Z" fill="url(#paint67_linear_175_198)"/>
<path d="M944.347 241.403C945.709 241.403 946.74 241.988 947.44 243.16C948.152 244.318 948.509 246.003 948.509 248.217C948.509 250.43 948.152 252.122 947.44 253.293C946.74 254.464 945.709 255.05 944.347 255.05C942.998 255.05 941.968 254.464 941.255 253.293C940.542 252.122 940.186 250.43 940.186 248.217C940.186 246.016 940.542 244.331 941.255 243.16C941.968 241.988 942.998 241.403 944.347 241.403ZM941.541 248.217C941.541 249.787 941.681 251.016 941.961 251.904L946.199 243.353C945.754 242.748 945.136 242.445 944.347 242.445C943.469 242.445 942.782 242.921 942.286 243.874C941.789 244.813 941.541 246.261 941.541 248.217ZM944.347 253.988C945.238 253.988 945.932 253.518 946.428 252.579C946.924 251.627 947.173 250.173 947.173 248.217C947.173 246.557 947.013 245.27 946.695 244.356L942.458 252.984C942.916 253.654 943.546 253.988 944.347 253.988Z" fill="url(#paint68_linear_175_198)"/>
<path d="M945.493 275.894H948.299V276.917H941.026V275.894H944.271V265.046L941.179 266.918L940.644 266.049L944.462 263.656H945.493V275.894Z" fill="url(#paint69_linear_175_198)"/>
<path d="M944.347 285.523C945.709 285.523 946.74 286.108 947.44 287.279C948.152 288.437 948.509 290.123 948.509 292.337C948.509 294.55 948.152 296.242 947.44 297.413C946.74 298.584 945.709 299.17 944.347 299.17C942.998 299.17 941.968 298.584 941.255 297.413C940.542 296.242 940.186 294.55 940.186 292.337C940.186 290.136 940.542 288.45 941.255 287.279C941.968 286.108 942.998 285.523 944.347 285.523ZM941.541 292.337C941.541 293.906 941.681 295.135 941.961 296.023L946.199 287.472C945.754 286.868 945.136 286.565 944.347 286.565C943.469 286.565 942.782 287.041 942.286 287.994C941.789 288.933 941.541 290.381 941.541 292.337ZM944.347 298.108C945.238 298.108 945.932 297.638 946.428 296.699C946.924 295.747 947.173 294.293 947.173 292.337C947.173 290.677 947.013 289.39 946.695 288.476L942.458 297.104C942.916 297.773 943.546 298.108 944.347 298.108Z" fill="url(#paint70_linear_175_198)"/>
<path d="M945.493 320.014H948.299V321.037H941.026V320.014H944.271V309.166L941.179 311.038L940.644 310.169L944.462 307.776H945.493V320.014Z" fill="url(#paint71_linear_175_198)"/>
<path d="M945.493 342.073H948.299V343.096H941.026V342.073H944.271V331.225L941.179 333.098L940.644 332.229L944.462 329.836H945.493V342.073Z" fill="url(#paint72_linear_175_198)"/>
<path d="M891.171 86.9836C892.533 86.9836 893.564 87.5691 894.264 88.7401C894.976 89.8983 895.333 91.584 895.333 93.7974C895.333 96.0107 894.976 97.7029 894.264 98.8739C893.564 100.045 892.533 100.63 891.171 100.63C889.822 100.63 888.791 100.045 888.079 98.8739C887.366 97.7029 887.01 96.0107 887.01 93.7974C887.01 91.5969 887.366 89.9111 888.079 88.7401C888.791 87.5691 889.822 86.9836 891.171 86.9836ZM888.365 93.7974C888.365 95.3673 888.505 96.5962 888.785 97.4841L893.023 88.9331C892.577 88.3283 891.96 88.0259 891.171 88.0259C890.293 88.0259 889.606 88.5021 889.11 89.4543C888.613 90.3937 888.365 91.8414 888.365 93.7974ZM891.171 99.5688C892.062 99.5688 892.756 99.0991 893.252 98.1597C893.748 97.2074 893.996 95.7533 893.996 93.7974C893.996 92.1374 893.837 90.8505 893.519 89.9369L889.281 98.5651C889.739 99.2342 890.369 99.5688 891.171 99.5688Z" fill="url(#paint73_linear_175_198)"/>
<path d="M891.171 109.044C892.533 109.044 893.564 109.629 894.264 110.8C894.976 111.958 895.333 113.644 895.333 115.857C895.333 118.071 894.976 119.763 894.264 120.934C893.564 122.105 892.533 122.69 891.171 122.69C889.822 122.69 888.791 122.105 888.079 120.934C887.366 119.763 887.01 118.071 887.01 115.857C887.01 113.657 887.366 111.971 888.079 110.8C888.791 109.629 889.822 109.044 891.171 109.044ZM888.365 115.857C888.365 117.427 888.505 118.656 888.785 119.544L893.023 110.993C892.577 110.388 891.96 110.086 891.171 110.086C890.293 110.086 889.606 110.562 889.11 111.514C888.613 112.454 888.365 113.901 888.365 115.857ZM891.171 121.629C892.062 121.629 892.756 121.159 893.252 120.22C893.748 119.267 893.996 117.813 893.996 115.857C893.996 114.197 893.837 112.91 893.519 111.997L889.281 120.625C889.739 121.294 890.369 121.629 891.171 121.629Z" fill="url(#paint74_linear_175_198)"/>
<path d="M892.316 143.534H895.123V144.557H887.85V143.534H891.095V132.686L888.002 134.559L887.468 133.69L891.286 131.296H892.316V143.534Z" fill="url(#paint75_linear_175_198)"/>
<path d="M891.171 153.163C892.533 153.163 893.564 153.749 894.264 154.92C894.976 156.078 895.333 157.764 895.333 159.977C895.333 162.19 894.976 163.883 894.264 165.054C893.564 166.225 892.533 166.81 891.171 166.81C889.822 166.81 888.791 166.225 888.079 165.054C887.366 163.883 887.01 162.19 887.01 159.977C887.01 157.777 887.366 156.091 888.079 154.92C888.791 153.749 889.822 153.163 891.171 153.163ZM888.365 159.977C888.365 161.547 888.505 162.776 888.785 163.664L893.023 155.113C892.577 154.508 891.96 154.206 891.171 154.206C890.293 154.206 889.606 154.682 889.11 155.634C888.613 156.573 888.365 158.021 888.365 159.977ZM891.171 165.749C892.062 165.749 892.756 165.279 893.252 164.339C893.748 163.387 893.996 161.933 893.996 159.977C893.996 158.317 893.837 157.03 893.519 156.117L889.281 164.745C889.739 165.414 890.369 165.749 891.171 165.749Z" fill="url(#paint76_linear_175_198)"/>
<path d="M892.316 187.654H895.123V188.677H887.85V187.654H891.095V176.806L888.002 178.678L887.468 177.81L891.286 175.416H892.316V187.654Z" fill="url(#paint77_linear_175_198)"/>
<path d="M892.316 209.714H895.123V210.737H887.85V209.714H891.095V198.866L888.002 200.738L887.468 199.87L891.286 197.476H892.316V209.714Z" fill="url(#paint78_linear_175_198)"/>
<path d="M927.767 55.2945H930.573V56.3176H923.301V55.2945H926.546V44.4466L923.453 46.3189L922.919 45.4503L926.737 43.0568H927.767V55.2945Z" fill="url(#paint79_linear_175_198)"/>
<path d="M926.622 64.9237C927.984 64.9237 929.014 65.5092 929.714 66.6802C930.427 67.8384 930.783 69.5241 930.783 71.7374C930.783 73.9508 930.427 75.643 929.714 76.814C929.014 77.985 927.984 78.5705 926.622 78.5705C925.273 78.5705 924.242 77.985 923.53 76.814C922.817 75.643 922.461 73.9508 922.461 71.7374C922.461 69.537 922.817 67.8512 923.53 66.6802C924.242 65.5092 925.273 64.9237 926.622 64.9237ZM923.816 71.7374C923.816 73.3074 923.956 74.5363 924.236 75.4242L928.474 66.8732C928.028 66.2684 927.411 65.966 926.622 65.966C925.744 65.966 925.057 66.4421 924.56 67.3944C924.064 68.3338 923.816 69.7815 923.816 71.7374ZM926.622 77.5089C927.513 77.5089 928.206 77.0392 928.703 76.0998C929.199 75.1475 929.447 73.6934 929.447 71.7374C929.447 70.0774 929.288 68.7906 928.97 67.877L924.732 76.5051C925.19 77.1743 925.82 77.5089 926.622 77.5089Z" fill="url(#paint80_linear_175_198)"/>
<path d="M927.767 99.4144H930.573V100.437H923.301V99.4144H926.546V88.5664L923.453 90.4387L922.919 89.5701L926.737 87.1766H927.767V99.4144Z" fill="url(#paint81_linear_175_198)"/>
<path d="M927.767 121.474H930.573V122.497H923.301V121.474H926.546V110.626L923.453 112.499L922.919 111.63L926.737 109.237H927.767V121.474Z" fill="url(#paint82_linear_175_198)"/>
<path d="M926.622 131.103C927.984 131.103 929.014 131.689 929.714 132.86C930.427 134.018 930.783 135.704 930.783 137.917C930.783 140.131 930.427 141.823 929.714 142.994C929.014 144.165 927.984 144.75 926.622 144.75C925.273 144.75 924.242 144.165 923.53 142.994C922.817 141.823 922.461 140.131 922.461 137.917C922.461 135.717 922.817 134.031 923.53 132.86C924.242 131.689 925.273 131.103 926.622 131.103ZM923.816 137.917C923.816 139.487 923.956 140.716 924.236 141.604L928.474 133.053C928.028 132.448 927.411 132.146 926.622 132.146C925.744 132.146 925.057 132.622 924.56 133.574C924.064 134.514 923.816 135.961 923.816 137.917ZM926.622 143.689C927.513 143.689 928.206 143.219 928.703 142.28C929.199 141.327 929.447 139.873 929.447 137.917C929.447 136.257 929.288 134.97 928.97 134.057L924.732 142.685C925.19 143.354 925.82 143.689 926.622 143.689Z" fill="url(#paint83_linear_175_198)"/>
<path d="M927.767 165.594H930.573V166.617H923.301V165.594H926.546V154.746L923.453 156.618L922.919 155.75L926.737 153.356H927.767V165.594Z" fill="url(#paint84_linear_175_198)"/>
<path d="M927.767 187.654H930.573V188.677H923.301V187.654H926.546V176.806L923.453 178.678L922.919 177.81L926.737 175.416H927.767V187.654Z" fill="url(#paint85_linear_175_198)"/>
<path d="M926.622 197.283C927.984 197.283 929.014 197.869 929.714 199.04C930.427 200.198 930.783 201.884 930.783 204.097C930.783 206.31 930.427 208.002 929.714 209.173C929.014 210.344 927.984 210.93 926.622 210.93C925.273 210.93 924.242 210.344 923.53 209.173C922.817 208.002 922.461 206.31 922.461 204.097C922.461 201.896 922.817 200.211 923.53 199.04C924.242 197.869 925.273 197.283 926.622 197.283ZM923.816 204.097C923.816 205.667 923.956 206.896 924.236 207.784L928.474 199.233C928.028 198.628 927.411 198.325 926.622 198.325C925.744 198.325 925.057 198.802 924.56 199.754C924.064 200.693 923.816 202.141 923.816 204.097ZM926.622 209.868C927.513 209.868 928.206 209.399 928.703 208.459C929.199 207.507 929.447 206.053 929.447 204.097C929.447 202.437 929.288 201.15 928.97 200.236L924.732 208.865C925.19 209.534 925.82 209.868 926.622 209.868Z" fill="url(#paint86_linear_175_198)"/>
<path d="M927.767 231.774H930.573V232.797H923.301V231.774H926.546V220.926L923.453 222.798L922.919 221.93L926.737 219.536H927.767V231.774Z" fill="url(#paint87_linear_175_198)"/>
<path d="M926.622 241.403C927.984 241.403 929.014 241.988 929.714 243.16C930.427 244.318 930.783 246.003 930.783 248.217C930.783 250.43 930.427 252.122 929.714 253.293C929.014 254.464 927.984 255.05 926.622 255.05C925.273 255.05 924.242 254.464 923.53 253.293C922.817 252.122 922.461 250.43 922.461 248.217C922.461 246.016 922.817 244.331 923.53 243.16C924.242 241.988 925.273 241.403 926.622 241.403ZM923.816 248.217C923.816 249.787 923.956 251.016 924.236 251.904L928.474 243.353C928.028 242.748 927.411 242.445 926.622 242.445C925.744 242.445 925.057 242.921 924.56 243.874C924.064 244.813 923.816 246.261 923.816 248.217ZM926.622 253.988C927.513 253.988 928.206 253.518 928.703 252.579C929.199 251.627 929.447 250.173 929.447 248.217C929.447 246.557 929.288 245.27 928.97 244.356L924.732 252.984C925.19 253.654 925.82 253.988 926.622 253.988Z" fill="url(#paint88_linear_175_198)"/>
<path d="M962.073 42.8638C963.434 42.8638 964.465 43.4493 965.165 44.6203C965.878 45.7784 966.234 47.4642 966.234 49.6775C966.234 51.8909 965.878 53.5831 965.165 54.7541C964.465 55.9251 963.434 56.5106 962.073 56.5106C960.724 56.5106 959.693 55.9251 958.98 54.7541C958.268 53.5831 957.911 51.8909 957.911 49.6775C957.911 47.4771 958.268 45.7913 958.98 44.6203C959.693 43.4493 960.724 42.8638 962.073 42.8638ZM959.267 49.6775C959.267 51.2475 959.407 52.4764 959.687 53.3643L963.924 44.8133C963.479 44.2085 962.862 43.9061 962.073 43.9061C961.195 43.9061 960.508 44.3822 960.011 45.3345C959.515 46.2739 959.267 47.7216 959.267 49.6775ZM962.073 55.449C962.964 55.449 963.657 54.9793 964.153 54.0399C964.65 53.0876 964.898 51.6335 964.898 49.6775C964.898 48.0175 964.739 46.7307 964.421 45.817L960.183 54.4452C960.641 55.1144 961.271 55.449 962.073 55.449Z" fill="url(#paint89_linear_175_198)"/>
<path d="M963.218 77.3544H966.024V78.3775H958.751V77.3544H961.996V66.5065L958.904 68.3788L958.37 67.5102L962.187 65.1167H963.218V77.3544Z" fill="url(#paint90_linear_175_198)"/>
<path d="M963.218 99.4144H966.024V100.437H958.751V99.4144H961.996V88.5664L958.904 90.4387L958.37 89.5701L962.187 87.1766H963.218V99.4144Z" fill="url(#paint91_linear_175_198)"/>
<path d="M962.073 109.044C963.434 109.044 964.465 109.629 965.165 110.8C965.878 111.958 966.234 113.644 966.234 115.857C966.234 118.071 965.878 119.763 965.165 120.934C964.465 122.105 963.434 122.69 962.073 122.69C960.724 122.69 959.693 122.105 958.98 120.934C958.268 119.763 957.911 118.071 957.911 115.857C957.911 113.657 958.268 111.971 958.98 110.8C959.693 109.629 960.724 109.044 962.073 109.044ZM959.267 115.857C959.267 117.427 959.407 118.656 959.687 119.544L963.924 110.993C963.479 110.388 962.862 110.086 962.073 110.086C961.195 110.086 960.508 110.562 960.011 111.514C959.515 112.454 959.267 113.901 959.267 115.857ZM962.073 121.629C962.964 121.629 963.657 121.159 964.153 120.22C964.65 119.267 964.898 117.813 964.898 115.857C964.898 114.197 964.739 112.91 964.421 111.997L960.183 120.625C960.641 121.294 961.271 121.629 962.073 121.629Z" fill="url(#paint92_linear_175_198)"/>
<path d="M962.073 131.103C963.434 131.103 964.465 131.689 965.165 132.86C965.878 134.018 966.234 135.704 966.234 137.917C966.234 140.131 965.878 141.823 965.165 142.994C964.465 144.165 963.434 144.75 962.073 144.75C960.724 144.75 959.693 144.165 958.98 142.994C958.268 141.823 957.911 140.131 957.911 137.917C957.911 135.717 958.268 134.031 958.98 132.86C959.693 131.689 960.724 131.103 962.073 131.103ZM959.267 137.917C959.267 139.487 959.407 140.716 959.687 141.604L963.924 133.053C963.479 132.448 962.862 132.146 962.073 132.146C961.195 132.146 960.508 132.622 960.011 133.574C959.515 134.514 959.267 135.961 959.267 137.917ZM962.073 143.689C962.964 143.689 963.657 143.219 964.153 142.28C964.65 141.327 964.898 139.873 964.898 137.917C964.898 136.257 964.739 134.97 964.421 134.057L960.183 142.685C960.641 143.354 961.271 143.689 962.073 143.689Z" fill="url(#paint93_linear_175_198)"/>
</g>
<defs>
<filter id="filter0_f_175_198" x="-520.19" y="-656.19" width="2080.38" height="1477.87" filterUnits="userSpaceOnUse" color-interpolation-filters="sRGB">
<feFlood flood-opacity="0" result="BackgroundImageFix"/>
<feBlend mode="normal" in="SourceGraphic" in2="BackgroundImageFix" result="shape"/>
<feGaussianBlur stdDeviation="200.095" result="effect1_foregroundBlur_175_198"/>
</filter>
<linearGradient id="paint0_linear_175_198" x1="80.9247" y1="311.158" x2="80.9247" y2="612.526" gradientUnits="userSpaceOnUse">
<stop stop-color="#F7DD43"/>
<stop offset="1" stop-color="#F7DD43" stop-opacity="0"/>
</linearGradient>
<linearGradient id="paint1_linear_175_198" x1="80.9247" y1="311.158" x2="80.9247" y2="612.526" gradientUnits="userSpaceOnUse">
<stop stop-color="#F7DD43"/>
<stop offset="1" stop-color="#F7DD43" stop-opacity="0"/>
</linearGradient>
<linearGradient id="paint2_linear_175_198" x1="80.9247" y1="311.158" x2="80.9247" y2="612.526" gradientUnits="userSpaceOnUse">
<stop stop-color="#F7DD43"/>
<stop offset="1" stop-color="#F7DD43" stop-opacity="0"/>
</linearGradient>
<linearGradient id="paint3_linear_175_198" x1="80.9247" y1="311.158" x2="80.9247" y2="612.526" gradientUnits="userSpaceOnUse">
<stop stop-color="#F7DD43"/>
<stop offset="1" stop-color="#F7DD43" stop-opacity="0"/>
</linearGradient>
<linearGradient id="paint4_linear_175_198" x1="80.9247" y1="311.158" x2="80.9247" y2="612.526" gradientUnits="userSpaceOnUse">
<stop stop-color="#F7DD43"/>
<stop offset="1" stop-color="#F7DD43" stop-opacity="0"/>
</linearGradient>
<linearGradient id="paint5_linear_175_198" x1="80.9247" y1="311.158" x2="80.9247" y2="612.526" gradientUnits="userSpaceOnUse">
<stop stop-color="#F7DD43"/>
<stop offset="1" stop-color="#F7DD43" stop-opacity="0"/>
</linearGradient>
<linearGradient id="paint6_linear_175_198" x1="80.9247" y1="311.158" x2="80.9247" y2="612.526" gradientUnits="userSpaceOnUse">
<stop stop-color="#F7DD43"/>
<stop offset="1" stop-color="#F7DD43" stop-opacity="0"/>
</linearGradient>
<linearGradient id="paint7_linear_175_198" x1="80.9247" y1="311.158" x2="80.9247" y2="612.526" gradientUnits="userSpaceOnUse">
<stop stop-color="#F7DD43"/>
<stop offset="1" stop-color="#F7DD43" stop-opacity="0"/>
</linearGradient>
<linearGradient id="paint8_linear_175_198" x1="80.9247" y1="311.158" x2="80.9247" y2="612.526" gradientUnits="userSpaceOnUse">
<stop stop-color="#F7DD43"/>
<stop offset="1" stop-color="#F7DD43" stop-opacity="0"/>
</linearGradient>
<linearGradient id="paint9_linear_175_198" x1="80.9247" y1="311.158" x2="80.9247" y2="612.526" gradientUnits="userSpaceOnUse">
<stop stop-color="#F7DD43"/>
<stop offset="1" stop-color="#F7DD43" stop-opacity="0"/>
</linearGradient>
<linearGradient id="paint10_linear_175_198" x1="80.9247" y1="311.158" x2="80.9247" y2="612.526" gradientUnits="userSpaceOnUse">
<stop stop-color="#F7DD43"/>
<stop offset="1" stop-color="#F7DD43" stop-opacity="0"/>
</linearGradient>
<linearGradient id="paint11_linear_175_198" x1="80.9247" y1="311.158" x2="80.9247" y2="612.526" gradientUnits="userSpaceOnUse">
<stop stop-color="#F7DD43"/>
<stop offset="1" stop-color="#F7DD43" stop-opacity="0"/>
</linearGradient>
<linearGradient id="paint12_linear_175_198" x1="80.9247" y1="311.158" x2="80.9247" y2="612.526" gradientUnits="userSpaceOnUse">
<stop stop-color="#F7DD43"/>
<stop offset="1" stop-color="#F7DD43" stop-opacity="0"/>
</linearGradient>
<linearGradient id="paint13_linear_175_198" x1="80.9247" y1="311.158" x2="80.9247" y2="612.526" gradientUnits="userSpaceOnUse">
<stop stop-color="#F7DD43"/>
<stop offset="1" stop-color="#F7DD43" stop-opacity="0"/>
</linearGradient>
<linearGradient id="paint14_linear_175_198" x1="80.9247" y1="311.158" x2="80.9247" y2="612.526" gradientUnits="userSpaceOnUse">
<stop stop-color="#F7DD43"/>
<stop offset="1" stop-color="#F7DD43" stop-opacity="0"/>
</linearGradient>
<linearGradient id="paint15_linear_175_198" x1="80.9247" y1="311.158" x2="80.9247" y2="612.526" gradientUnits="userSpaceOnUse">
<stop stop-color="#F7DD43"/>
<stop offset="1" stop-color="#F7DD43" stop-opacity="0"/>
</linearGradient>
<linearGradient id="paint16_linear_175_198" x1="80.9247" y1="311.158" x2="80.9247" y2="612.526" gradientUnits="userSpaceOnUse">
<stop stop-color="#F7DD43"/>
<stop offset="1" stop-color="#F7DD43" stop-opacity="0"/>
</linearGradient>
<linearGradient id="paint17_linear_175_198" x1="80.9247" y1="311.158" x2="80.9247" y2="612.526" gradientUnits="userSpaceOnUse">
<stop stop-color="#F7DD43"/>
<stop offset="1" stop-color="#F7DD43" stop-opacity="0"/>
</linearGradient>
<linearGradient id="paint18_linear_175_198" x1="80.9247" y1="311.158" x2="80.9247" y2="612.526" gradientUnits="userSpaceOnUse">
<stop stop-color="#F7DD43"/>
<stop offset="1" stop-color="#F7DD43" stop-opacity="0"/>
</linearGradient>
<linearGradient id="paint19_linear_175_198" x1="80.9247" y1="311.158" x2="80.9247" y2="612.526" gradientUnits="userSpaceOnUse">
<stop stop-color="#F7DD43"/>
<stop offset="1" stop-color="#F7DD43" stop-opacity="0"/>
</linearGradient>
<linearGradient id="paint20_linear_175_198" x1="80.9247" y1="311.158" x2="80.9247" y2="612.526" gradientUnits="userSpaceOnUse">
<stop stop-color="#F7DD43"/>
<stop offset="1" stop-color="#F7DD43" stop-opacity="0"/>
</linearGradient>
<linearGradient id="paint21_linear_175_198" x1="80.9247" y1="311.158" x2="80.9247" y2="612.526" gradientUnits="userSpaceOnUse">
<stop stop-color="#F7DD43"/>
<stop offset="1" stop-color="#F7DD43" stop-opacity="0"/>
</linearGradient>
<linearGradient id="paint22_linear_175_198" x1="80.9247" y1="311.158" x2="80.9247" y2="612.526" gradientUnits="userSpaceOnUse">
<stop stop-color="#F7DD43"/>
<stop offset="1" stop-color="#F7DD43" stop-opacity="0"/>
</linearGradient>
<linearGradient id="paint23_linear_175_198" x1="80.9247" y1="311.158" x2="80.9247" y2="612.526" gradientUnits="userSpaceOnUse">
<stop stop-color="#F7DD43"/>
<stop offset="1" stop-color="#F7DD43" stop-opacity="0"/>
</linearGradient>
<linearGradient id="paint24_linear_175_198" x1="80.9247" y1="311.158" x2="80.9247" y2="612.526" gradientUnits="userSpaceOnUse">
<stop stop-color="#F7DD43"/>
<stop offset="1" stop-color="#F7DD43" stop-opacity="0"/>
</linearGradient>
<linearGradient id="paint25_linear_175_198" x1="80.9247" y1="311.158" x2="80.9247" y2="612.526" gradientUnits="userSpaceOnUse">
<stop stop-color="#F7DD43"/>
<stop offset="1" stop-color="#F7DD43" stop-opacity="0"/>
</linearGradient>
<linearGradient id="paint26_linear_175_198" x1="80.9247" y1="311.158" x2="80.9247" y2="612.526" gradientUnits="userSpaceOnUse">
<stop stop-color="#F7DD43"/>
<stop offset="1" stop-color="#F7DD43" stop-opacity="0"/>
</linearGradient>
<linearGradient id="paint27_linear_175_198" x1="80.9247" y1="311.158" x2="80.9247" y2="612.526" gradientUnits="userSpaceOnUse">
<stop stop-color="#F7DD43"/>
<stop offset="1" stop-color="#F7DD43" stop-opacity="0"/>
</linearGradient>
<linearGradient id="paint28_linear_175_198" x1="80.9247" y1="311.158" x2="80.9247" y2="612.526" gradientUnits="userSpaceOnUse">
<stop stop-color="#F7DD43"/>
<stop offset="1" stop-color="#F7DD43" stop-opacity="0"/>
</linearGradient>
<linearGradient id="paint29_linear_175_198" x1="80.9247" y1="311.158" x2="80.9247" y2="612.526" gradientUnits="userSpaceOnUse">
<stop stop-color="#F7DD43"/>
<stop offset="1" stop-color="#F7DD43" stop-opacity="0"/>
</linearGradient>
<linearGradient id="paint30_linear_175_198" x1="80.9247" y1="311.158" x2="80.9247" y2="612.526" gradientUnits="userSpaceOnUse">
<stop stop-color="#F7DD43"/>
<stop offset="1" stop-color="#F7DD43" stop-opacity="0"/>
</linearGradient>
<linearGradient id="paint31_linear_175_198" x1="80.9247" y1="311.158" x2="80.9247" y2="612.526" gradientUnits="userSpaceOnUse">
<stop stop-color="#F7DD43"/>
<stop offset="1" stop-color="#F7DD43" stop-opacity="0"/>
</linearGradient>
<linearGradient id="paint32_linear_175_198" x1="80.9247" y1="311.158" x2="80.9247" y2="612.526" gradientUnits="userSpaceOnUse">
<stop stop-color="#F7DD43"/>
<stop offset="1" stop-color="#F7DD43" stop-opacity="0"/>
</linearGradient>
<linearGradient id="paint33_linear_175_198" x1="80.9247" y1="311.158" x2="80.9247" y2="612.526" gradientUnits="userSpaceOnUse">
<stop stop-color="#F7DD43"/>
<stop offset="1" stop-color="#F7DD43" stop-opacity="0"/>
</linearGradient>
<linearGradient id="paint34_linear_175_198" x1="80.9247" y1="311.158" x2="80.9247" y2="612.526" gradientUnits="userSpaceOnUse">
<stop stop-color="#F7DD43"/>
<stop offset="1" stop-color="#F7DD43" stop-opacity="0"/>
</linearGradient>
<linearGradient id="paint35_linear_175_198" x1="80.9247" y1="311.158" x2="80.9247" y2="612.526" gradientUnits="userSpaceOnUse">
<stop stop-color="#F7DD43"/>
<stop offset="1" stop-color="#F7DD43" stop-opacity="0"/>
</linearGradient>
<linearGradient id="paint36_linear_175_198" x1="80.9247" y1="311.158" x2="80.9247" y2="612.526" gradientUnits="userSpaceOnUse">
<stop stop-color="#F7DD43"/>
<stop offset="1" stop-color="#F7DD43" stop-opacity="0"/>
</linearGradient>
<linearGradient id="paint37_linear_175_198" x1="80.9247" y1="311.158" x2="80.9247" y2="612.526" gradientUnits="userSpaceOnUse">
<stop stop-color="#F7DD43"/>
<stop offset="1" stop-color="#F7DD43" stop-opacity="0"/>
</linearGradient>
<linearGradient id="paint38_linear_175_198" x1="80.9247" y1="311.158" x2="80.9247" y2="612.526" gradientUnits="userSpaceOnUse">
<stop stop-color="#F7DD43"/>
<stop offset="1" stop-color="#F7DD43" stop-opacity="0"/>
</linearGradient>
<linearGradient id="paint39_linear_175_198" x1="80.9247" y1="311.158" x2="80.9247" y2="612.526" gradientUnits="userSpaceOnUse">
<stop stop-color="#F7DD43"/>
<stop offset="1" stop-color="#F7DD43" stop-opacity="0"/>
</linearGradient>
<linearGradient id="paint40_linear_175_198" x1="80.9247" y1="311.158" x2="80.9247" y2="612.526" gradientUnits="userSpaceOnUse">
<stop stop-color="#F7DD43"/>
<stop offset="1" stop-color="#F7DD43" stop-opacity="0"/>
</linearGradient>
<linearGradient id="paint41_linear_175_198" x1="80.9247" y1="311.158" x2="80.9247" y2="612.526" gradientUnits="userSpaceOnUse">
<stop stop-color="#F7DD43"/>
<stop offset="1" stop-color="#F7DD43" stop-opacity="0"/>
</linearGradient>
<linearGradient id="paint42_linear_175_198" x1="80.9247" y1="311.158" x2="80.9247" y2="612.526" gradientUnits="userSpaceOnUse">
<stop stop-color="#F7DD43"/>
<stop offset="1" stop-color="#F7DD43" stop-opacity="0"/>
</linearGradient>
<linearGradient id="paint43_linear_175_198" x1="80.9247" y1="311.158" x2="80.9247" y2="612.526" gradientUnits="userSpaceOnUse">
<stop stop-color="#F7DD43"/>
<stop offset="1" stop-color="#F7DD43" stop-opacity="0"/>
</linearGradient>
<linearGradient id="paint44_linear_175_198" x1="80.9247" y1="311.158" x2="80.9247" y2="612.526" gradientUnits="userSpaceOnUse">
<stop stop-color="#F7DD43"/>
<stop offset="1" stop-color="#F7DD43" stop-opacity="0"/>
</linearGradient>
<linearGradient id="paint45_linear_175_198" x1="80.9247" y1="311.158" x2="80.9247" y2="612.526" gradientUnits="userSpaceOnUse">
<stop stop-color="#F7DD43"/>
<stop offset="1" stop-color="#F7DD43" stop-opacity="0"/>
</linearGradient>
<linearGradient id="paint46_linear_175_198" x1="80.9247" y1="311.158" x2="80.9247" y2="612.526" gradientUnits="userSpaceOnUse">
<stop stop-color="#F7DD43"/>
<stop offset="1" stop-color="#F7DD43" stop-opacity="0"/>
</linearGradient>
<linearGradient id="paint47_linear_175_198" x1="926.622" y1="20.8039" x2="926.622" y2="310.013" gradientUnits="userSpaceOnUse">
<stop stop-color="#F7DD43"/>
<stop offset="1" stop-color="#F7DD43" stop-opacity="0"/>
</linearGradient>
<linearGradient id="paint48_linear_175_198" x1="926.622" y1="20.8039" x2="926.622" y2="310.013" gradientUnits="userSpaceOnUse">
<stop stop-color="#F7DD43"/>
<stop offset="1" stop-color="#F7DD43" stop-opacity="0"/>
</linearGradient>
<linearGradient id="paint49_linear_175_198" x1="926.622" y1="20.8039" x2="926.622" y2="310.013" gradientUnits="userSpaceOnUse">
<stop stop-color="#F7DD43"/>
<stop offset="1" stop-color="#F7DD43" stop-opacity="0"/>
</linearGradient>
<linearGradient id="paint50_linear_175_198" x1="926.622" y1="20.8039" x2="926.622" y2="310.013" gradientUnits="userSpaceOnUse">
<stop stop-color="#F7DD43"/>
<stop offset="1" stop-color="#F7DD43" stop-opacity="0"/>
</linearGradient>
<linearGradient id="paint51_linear_175_198" x1="926.622" y1="20.8039" x2="926.622" y2="310.013" gradientUnits="userSpaceOnUse">
<stop stop-color="#F7DD43"/>
<stop offset="1" stop-color="#F7DD43" stop-opacity="0"/>
</linearGradient>
<linearGradient id="paint52_linear_175_198" x1="926.622" y1="20.8039" x2="926.622" y2="310.013" gradientUnits="userSpaceOnUse">
<stop stop-color="#F7DD43"/>
<stop offset="1" stop-color="#F7DD43" stop-opacity="0"/>
</linearGradient>
<linearGradient id="paint53_linear_175_198" x1="926.622" y1="20.8039" x2="926.622" y2="310.013" gradientUnits="userSpaceOnUse">
<stop stop-color="#F7DD43"/>
<stop offset="1" stop-color="#F7DD43" stop-opacity="0"/>
</linearGradient>
<linearGradient id="paint54_linear_175_198" x1="926.622" y1="20.8039" x2="926.622" y2="310.013" gradientUnits="userSpaceOnUse">
<stop stop-color="#F7DD43"/>
<stop offset="1" stop-color="#F7DD43" stop-opacity="0"/>
</linearGradient>
<linearGradient id="paint55_linear_175_198" x1="926.622" y1="20.8039" x2="926.622" y2="310.013" gradientUnits="userSpaceOnUse">
<stop stop-color="#F7DD43"/>
<stop offset="1" stop-color="#F7DD43" stop-opacity="0"/>
</linearGradient>
<linearGradient id="paint56_linear_175_198" x1="926.622" y1="20.8039" x2="926.622" y2="310.013" gradientUnits="userSpaceOnUse">
<stop stop-color="#F7DD43"/>
<stop offset="1" stop-color="#F7DD43" stop-opacity="0"/>
</linearGradient>
<linearGradient id="paint57_linear_175_198" x1="926.622" y1="20.8039" x2="926.622" y2="310.013" gradientUnits="userSpaceOnUse">
<stop stop-color="#F7DD43"/>
<stop offset="1" stop-color="#F7DD43" stop-opacity="0"/>
</linearGradient>
<linearGradient id="paint58_linear_175_198" x1="926.622" y1="20.8039" x2="926.622" y2="310.013" gradientUnits="userSpaceOnUse">
<stop stop-color="#F7DD43"/>
<stop offset="1" stop-color="#F7DD43" stop-opacity="0"/>
</linearGradient>
<linearGradient id="paint59_linear_175_198" x1="926.622" y1="20.8039" x2="926.622" y2="310.013" gradientUnits="userSpaceOnUse">
<stop stop-color="#F7DD43"/>
<stop offset="1" stop-color="#F7DD43" stop-opacity="0"/>
</linearGradient>
<linearGradient id="paint60_linear_175_198" x1="926.622" y1="20.8039" x2="926.622" y2="310.013" gradientUnits="userSpaceOnUse">
<stop stop-color="#F7DD43"/>
<stop offset="1" stop-color="#F7DD43" stop-opacity="0"/>
</linearGradient>
<linearGradient id="paint61_linear_175_198" x1="926.622" y1="20.8039" x2="926.622" y2="310.013" gradientUnits="userSpaceOnUse">
<stop stop-color="#F7DD43"/>
<stop offset="1" stop-color="#F7DD43" stop-opacity="0"/>
</linearGradient>
<linearGradient id="paint62_linear_175_198" x1="926.622" y1="20.8039" x2="926.622" y2="310.013" gradientUnits="userSpaceOnUse">
<stop stop-color="#F7DD43"/>
<stop offset="1" stop-color="#F7DD43" stop-opacity="0"/>
</linearGradient>
<linearGradient id="paint63_linear_175_198" x1="926.622" y1="20.8039" x2="926.622" y2="310.013" gradientUnits="userSpaceOnUse">
<stop stop-color="#F7DD43"/>
<stop offset="1" stop-color="#F7DD43" stop-opacity="0"/>
</linearGradient>
<linearGradient id="paint64_linear_175_198" x1="926.622" y1="20.8039" x2="926.622" y2="310.013" gradientUnits="userSpaceOnUse">
<stop stop-color="#F7DD43"/>
<stop offset="1" stop-color="#F7DD43" stop-opacity="0"/>
</linearGradient>
<linearGradient id="paint65_linear_175_198" x1="926.622" y1="20.8039" x2="926.622" y2="310.013" gradientUnits="userSpaceOnUse">
<stop stop-color="#F7DD43"/>
<stop offset="1" stop-color="#F7DD43" stop-opacity="0"/>
</linearGradient>
<linearGradient id="paint66_linear_175_198" x1="926.622" y1="20.8039" x2="926.622" y2="310.013" gradientUnits="userSpaceOnUse">
<stop stop-color="#F7DD43"/>
<stop offset="1" stop-color="#F7DD43" stop-opacity="0"/>
</linearGradient>
<linearGradient id="paint67_linear_175_198" x1="926.622" y1="20.8039" x2="926.622" y2="310.013" gradientUnits="userSpaceOnUse">
<stop stop-color="#F7DD43"/>
<stop offset="1" stop-color="#F7DD43" stop-opacity="0"/>
</linearGradient>
<linearGradient id="paint68_linear_175_198" x1="926.622" y1="20.8039" x2="926.622" y2="310.013" gradientUnits="userSpaceOnUse">
<stop stop-color="#F7DD43"/>
<stop offset="1" stop-color="#F7DD43" stop-opacity="0"/>
</linearGradient>
<linearGradient id="paint69_linear_175_198" x1="926.622" y1="20.8039" x2="926.622" y2="310.013" gradientUnits="userSpaceOnUse">
<stop stop-color="#F7DD43"/>
<stop offset="1" stop-color="#F7DD43" stop-opacity="0"/>
</linearGradient>
<linearGradient id="paint70_linear_175_198" x1="926.622" y1="20.8039" x2="926.622" y2="310.013" gradientUnits="userSpaceOnUse">
<stop stop-color="#F7DD43"/>
<stop offset="1" stop-color="#F7DD43" stop-opacity="0"/>
</linearGradient>
<linearGradient id="paint71_linear_175_198" x1="926.622" y1="20.8039" x2="926.622" y2="310.013" gradientUnits="userSpaceOnUse">
<stop stop-color="#F7DD43"/>
<stop offset="1" stop-color="#F7DD43" stop-opacity="0"/>
</linearGradient>
<linearGradient id="paint72_linear_175_198" x1="926.622" y1="20.8039" x2="926.622" y2="310.013" gradientUnits="userSpaceOnUse">
<stop stop-color="#F7DD43"/>
<stop offset="1" stop-color="#F7DD43" stop-opacity="0"/>
</linearGradient>
<linearGradient id="paint73_linear_175_198" x1="926.622" y1="20.8039" x2="926.622" y2="310.013" gradientUnits="userSpaceOnUse">
<stop stop-color="#F7DD43"/>
<stop offset="1" stop-color="#F7DD43" stop-opacity="0"/>
</linearGradient>
<linearGradient id="paint74_linear_175_198" x1="926.622" y1="20.8039" x2="926.622" y2="310.013" gradientUnits="userSpaceOnUse">
<stop stop-color="#F7DD43"/>
<stop offset="1" stop-color="#F7DD43" stop-opacity="0"/>
</linearGradient>
<linearGradient id="paint75_linear_175_198" x1="926.622" y1="20.8039" x2="926.622" y2="310.013" gradientUnits="userSpaceOnUse">
<stop stop-color="#F7DD43"/>
<stop offset="1" stop-color="#F7DD43" stop-opacity="0"/>
</linearGradient>
<linearGradient id="paint76_linear_175_198" x1="926.622" y1="20.8039" x2="926.622" y2="310.013" gradientUnits="userSpaceOnUse">
<stop stop-color="#F7DD43"/>
<stop offset="1" stop-color="#F7DD43" stop-opacity="0"/>
</linearGradient>
<linearGradient id="paint77_linear_175_198" x1="926.622" y1="20.8039" x2="926.622" y2="310.013" gradientUnits="userSpaceOnUse">
<stop stop-color="#F7DD43"/>
<stop offset="1" stop-color="#F7DD43" stop-opacity="0"/>
</linearGradient>
<linearGradient id="paint78_linear_175_198" x1="926.622" y1="20.8039" x2="926.622" y2="310.013" gradientUnits="userSpaceOnUse">
<stop stop-color="#F7DD43"/>
<stop offset="1" stop-color="#F7DD43" stop-opacity="0"/>
</linearGradient>
<linearGradient id="paint79_linear_175_198" x1="926.622" y1="20.8039" x2="926.622" y2="310.013" gradientUnits="userSpaceOnUse">
<stop stop-color="#F7DD43"/>
<stop offset="1" stop-color="#F7DD43" stop-opacity="0"/>
</linearGradient>
<linearGradient id="paint80_linear_175_198" x1="926.622" y1="20.8039" x2="926.622" y2="310.013" gradientUnits="userSpaceOnUse">
<stop stop-color="#F7DD43"/>
<stop offset="1" stop-color="#F7DD43" stop-opacity="0"/>
</linearGradient>
<linearGradient id="paint81_linear_175_198" x1="926.622" y1="20.8039" x2="926.622" y2="310.013" gradientUnits="userSpaceOnUse">
<stop stop-color="#F7DD43"/>
<stop offset="1" stop-color="#F7DD43" stop-opacity="0"/>
</linearGradient>
<linearGradient id="paint82_linear_175_198" x1="926.622" y1="20.8039" x2="926.622" y2="310.013" gradientUnits="userSpaceOnUse">
<stop stop-color="#F7DD43"/>
<stop offset="1" stop-color="#F7DD43" stop-opacity="0"/>
</linearGradient>
<linearGradient id="paint83_linear_175_198" x1="926.622" y1="20.8039" x2="926.622" y2="310.013" gradientUnits="userSpaceOnUse">
<stop stop-color="#F7DD43"/>
<stop offset="1" stop-color="#F7DD43" stop-opacity="0"/>
</linearGradient>
<linearGradient id="paint84_linear_175_198" x1="926.622" y1="20.8039" x2="926.622" y2="310.013" gradientUnits="userSpaceOnUse">
<stop stop-color="#F7DD43"/>
<stop offset="1" stop-color="#F7DD43" stop-opacity="0"/>
</linearGradient>
<linearGradient id="paint85_linear_175_198" x1="926.622" y1="20.8039" x2="926.622" y2="310.013" gradientUnits="userSpaceOnUse">
<stop stop-color="#F7DD43"/>
<stop offset="1" stop-color="#F7DD43" stop-opacity="0"/>
</linearGradient>
<linearGradient id="paint86_linear_175_198" x1="926.622" y1="20.8039" x2="926.622" y2="310.013" gradientUnits="userSpaceOnUse">
<stop stop-color="#F7DD43"/>
<stop offset="1" stop-color="#F7DD43" stop-opacity="0"/>
</linearGradient>
<linearGradient id="paint87_linear_175_198" x1="926.622" y1="20.8039" x2="926.622" y2="310.013" gradientUnits="userSpaceOnUse">
<stop stop-color="#F7DD43"/>
<stop offset="1" stop-color="#F7DD43" stop-opacity="0"/>
</linearGradient>
<linearGradient id="paint88_linear_175_198" x1="926.622" y1="20.8039" x2="926.622" y2="310.013" gradientUnits="userSpaceOnUse">
<stop stop-color="#F7DD43"/>
<stop offset="1" stop-color="#F7DD43" stop-opacity="0"/>
</linearGradient>
<linearGradient id="paint89_linear_175_198" x1="926.622" y1="20.8039" x2="926.622" y2="310.013" gradientUnits="userSpaceOnUse">
<stop stop-color="#F7DD43"/>
<stop offset="1" stop-color="#F7DD43" stop-opacity="0"/>
</linearGradient>
<linearGradient id="paint90_linear_175_198" x1="926.622" y1="20.8039" x2="926.622" y2="310.013" gradientUnits="userSpaceOnUse">
<stop stop-color="#F7DD43"/>
<stop offset="1" stop-color="#F7DD43" stop-opacity="0"/>
</linearGradient>
<linearGradient id="paint91_linear_175_198" x1="926.622" y1="20.8039" x2="926.622" y2="310.013" gradientUnits="userSpaceOnUse">
<stop stop-color="#F7DD43"/>
<stop offset="1" stop-color="#F7DD43" stop-opacity="0"/>
</linearGradient>
<linearGradient id="paint92_linear_175_198" x1="926.622" y1="20.8039" x2="926.622" y2="310.013" gradientUnits="userSpaceOnUse">
<stop stop-color="#F7DD43"/>
<stop offset="1" stop-color="#F7DD43" stop-opacity="0"/>
</linearGradient>
<linearGradient id="paint93_linear_175_198" x1="926.622" y1="20.8039" x2="926.622" y2="310.013" gradientUnits="userSpaceOnUse">
<stop stop-color="#F7DD43"/>
<stop offset="1" stop-color="#F7DD43" stop-opacity="0"/>
</linearGradient>
</defs>
</svg>
